+15_US_stride5.mot
nRows=127
nColumns=3

name +15_US_stride5.mot
datacolumns 3
datarows 127
range 2.070000 2.700000
endheader
time	soleus_l	med_gas_l
        2.0700000000	       31.6915402038	       32.4921430189	
        2.0750000000	       31.2344985982	       32.3701712307	
        2.0800000000	       30.8246849878	       32.2367604544	
        2.0850000000	       30.4898520120	       32.0237128018	
        2.0900000000	       30.2616870312	       31.7084025044	
        2.0950000000	       30.1623591997	       31.3937896807	
        2.1000000000	       30.1245992570	       31.0904639162	
        2.1050000000	       30.1281907381	       30.6888190559	
        2.1100000000	       30.1509787012	       30.3517749972	
        2.1150000000	       30.1835713670	       30.1217139847	
        2.1200000000	       30.2117465152	       30.0200618350	
        2.1250000000	       30.2360168914	       29.9862073008	
        2.1300000000	       30.2772693032	       29.9974272140	
        2.1350000000	       30.3294655213	       30.0054884653	
        2.1400000000	       30.3818632837	       29.9939267928	
        2.1450000000	       30.4218906970	       29.8966593435	
        2.1500000000	       30.4408033189	       29.7113180518	
        2.1550000000	       30.4379047777	       29.5182854032	
        2.1600000000	       30.4280398226	       29.2603934435	
        2.1650000000	       30.4015996025	       28.9191984199	
        2.1700000000	       30.3676574576	       28.5958885310	
        2.1750000000	       30.3205336637	       28.3349240689	
        2.1800000000	       30.2447654773	       28.1609259685	
        2.1850000000	       30.1549897596	       28.1091519165	
        2.1900000000	       30.0517740171	       28.0968710806	
        2.1950000000	       29.8871828181	       28.1410687302	
        2.2000000000	       29.7058891728	       28.1966010704	
        2.2050000000	       29.5239492842	       28.2017320325	
        2.2100000000	       29.3451099563	       28.1560738199	
        2.2150000000	       29.1738538322	       28.0211862981	
        2.2200000000	       29.0294975544	       27.8782525129	
        2.2250000000	       28.8007574417	       27.6726242817	
        2.2300000000	       28.4591464839	       27.4296670635	
        2.2350000000	       28.0330994330	       27.2106308385	
        2.2400000000	       27.5382893145	       27.0193128045	
        2.2450000000	       27.1332317289	       26.8836331926	
        2.2500000000	       26.6890004446	       26.7330789782	
        2.2550000000	       26.2070061231	       26.5473460637	
        2.2600000000	       25.8316943862	       26.3624419824	
        2.2650000000	       25.5288858456	       26.1741330935	
        2.2700000000	       25.2595484925	       26.0053412225	
        2.2750000000	       25.0311080099	       25.8997128645	
        2.2800000000	       24.8028369465	       25.8344424755	
        2.2850000000	       24.4150635644	       25.7877046424	
        2.2900000000	       23.9669819002	       25.7864946089	
        2.2950000000	       23.4883610639	       25.7885694907	
        2.3000000000	       23.0327191906	       25.7817505592	
        2.3050000000	       22.6946230028	       25.7270149495	
        2.3100000000	       22.5058047122	       25.6444209083	
        2.3150000000	       22.4848266878	       25.4990179099	
        2.3200000000	       22.5415521647	       25.2862619085	
        2.3250000000	       22.8368735431	       25.0608140513	
        2.3300000000	       23.2802384492	       24.8529913415	
        2.3350000000	       23.8338856230	       24.7015183676	
        2.3400000000	       24.3158002038	       24.6644551642	
        2.3450000000	       24.8102031561	       24.6603862624	
        2.3500000000	       25.4281625591	       24.7685834318	
        2.3550000000	       25.9787511393	       24.9571548042	
        2.3600000000	       26.4557509152	       25.2067817801	
        2.3650000000	       26.8543644166	       25.4943616760	
        2.3700000000	       27.1499136952	       25.7583912361	
        2.3750000000	       27.3642921552	       25.9748701275	
        2.3800000000	       27.6571776521	       26.2706563649	
        2.3850000000	       28.0098617018	       26.5946114225	
        2.3900000000	       28.4377597412	       26.9219990729	
        2.3950000000	       28.9204910522	       27.2158185491	
        2.4000000000	       29.3246622491	       27.4128053319	
        2.4050000000	       29.8543032213	       27.6076644924	
        2.4100000000	       30.4874266592	       27.7608204438	
        2.4150000000	       31.1070401334	       27.8308252797	
        2.4200000000	       31.6707060471	       27.8418300910	
        2.4250000000	       32.1889155444	       27.8077291453	
        2.4300000000	       32.5538363912	       27.7702563493	
        2.4350000000	       32.8824884835	       27.7338324516	
        2.4400000000	       33.2580997855	       27.7004096803	
        2.4450000000	       33.5607562292	       27.6929787317	
        2.4500000000	       33.7869116456	       27.7064495559	
        2.4550000000	       33.9539082284	       27.7406648604	
        2.4600000000	       34.0750864217	       27.7793176722	
        2.4650000000	       34.1702018913	       27.8109276369	
        2.4700000000	       34.3514526215	       27.8519105373	
        2.4750000000	       34.6284205040	       27.8994170861	
        2.4800000000	       34.9999712325	       27.9649135189	
        2.4850000000	       35.4434595048	       28.0746434467	
        2.4900000000	       35.8737090224	       28.2458798298	
        2.4950000000	       36.1676900877	       28.4293559549	
        2.5000000000	       36.4148091972	       28.6794908803	
        2.5050000000	       36.5922875974	       29.0230149554	
        2.5100000000	       36.6544842575	       29.3540797700	
        2.5150000000	       36.6392367093	       29.6436682606	
        2.5200000000	       36.6136327324	       29.8146625174	
        2.5250000000	       36.5830472342	       29.9377525594	
        2.5300000000	       36.5539356462	       30.0376878721	
        2.5350000000	       36.5275962118	       30.0814393917	
        2.5400000000	       36.4786420582	       30.0813058529	
        2.5450000000	       36.3856048563	       30.0606730505	
        2.5500000000	       36.2571286220	       30.0066599571	
        2.5550000000	       36.1208851521	       29.9376813739	
        2.5600000000	       35.9156386617	       29.8188622750	
        2.5650000000	       35.6945053935	       29.6784768966	
        2.5700000000	       35.5032299406	       29.5702518487	
        2.5750000000	       35.3602111970	       29.5281045574	
        2.5800000000	       35.2740086458	       29.5972139695	
        2.5850000000	       35.2459619779	       29.7341307240	
        2.5900000000	       35.2335455087	       29.9755296145	
        2.5950000000	       35.2248204710	       30.3736398179	
        2.6000000000	       35.1988974535	       30.8334371201	
        2.6050000000	       35.1369231337	       31.3213498685	
        2.6100000000	       35.0355761466	       31.7999882651	
        2.6150000000	       34.9216477878	       32.1686404558	
        2.6200000000	       34.7964749078	       32.4658187906	
        2.6250000000	       34.6024078178	       32.7987438467	
        2.6300000000	       34.3834959212	       33.0499355046	
        2.6350000000	       34.1475934616	       33.2213735850	
        2.6400000000	       33.9492766839	       33.3111245370	
        2.6450000000	       33.8076207301	       33.3527303663	
        2.6500000000	       33.6537351819	       33.3764106888	
        2.6550000000	       33.5619211941	       33.3787911896	
        2.6600000000	       33.5405753181	       33.3730459378	
        2.6650000000	       33.5627683730	       33.3511961978	
        2.6700000000	       33.6161084475	       33.3074038657	
        2.6750000000	       33.6418527367	       33.2515862571	
        2.6800000000	       33.6381623325	       33.1603481312	
        2.6850000000	       33.5573518602	       33.0055612120	
        2.6900000000	       33.3666155380	       32.8266189610	
        2.6950000000	       33.0900529771	       32.6560499229	
        2.7000000000	       32.7532620804	       32.5325793466	
